/* XPM */
static char *_8df489c5b2e4c1fdb0f267f0f5a7c5fxXJmO7A4OkBtzxWs[] = {
/* columns rows colors chars-per-pixel */
"26 26 7 1 ",
"  c None",
". c #262B44",
"X c #3A4466",
"o c #4C5A79",
"O c #5A6988",
"+ c #6F7F9A",
"@ c #8B9BB4",
/* pixels */
"                          ",
" ....XXX....oOOOo..oOOOo. ",
" ...........XoooX...Xooo. ",
" ..@@@@......XXX.....XX.. ",
" .@+OOo..@@@............. ",
" @+OOoX.@+++@...........o ",
" OoooX..oOOO+@...@@@@o..o ",
" XXXX...Xooooo..@+++Oo... ",
" ........XXXXX.@+OOOoX... ",
" ..............oooooX.... ",
" @@...@@@@@@....XXXX....@ ",
" +++.@++++++@..........++ ",
" OOo.+OOOOOO+@.........oO ",
" ooX.OOOOOOOO+...@@@@...X ",
" XX..OOOOOOOO+..@++++@... ",
" ....oOOOOOOOO..+OOOO+... ",
" ....XoOOOOOOO..oOOOOO... ",
" .....XoOOOOOo..XoOOOo... ",
" @@@@..XoOOOoX...XoooX..@ ",
" ++++@..XoooX.....XXX..++ ",
" +++++@..XXX...@@......O+ ",
" OO+++++......@++@.....oO ",
" ooO++++o....@+OOO..@@..X ",
" XXoOOOOo...+OOOOX.@OO@.. ",
" ..XXoooX...OOOOo..OOOO@. ",
"                          "
};
