/* XPM */
static char *ded68ba815e04476ba414118c9671b38DkyVYtOneMrFEAkL[] = {
/* columns rows colors chars-per-pixel */
"28 28 5 1 ",
"  c None",
". c #3A4466",
"X c #5A6988",
"o c #8B9BB4",
"O c #C0CBDC",
/* pixels */
"                            ",
"                            ",
"  ooooooooooO.Xooooooooooo  ",
"  ooooooooooO.Xooooooooooo  ",
"  ooooooooooO.Xooooooooooo  ",
"  ooooooooooO.Xooooooooooo  ",
"  ooooooooooO.Xooooooooooo  ",
"  ooooooooooO.Xooooooooooo  ",
"  XXXXXXXXXXX.XXXXXXXXXXXX  ",
"  ........................  ",
"  OOOOOO.OOOOOOOOO.OOOOOOO  ",
"  oooooO.XoooooooO.Xoooooo  ",
"  oooooO.XoooooooO.Xoooooo  ",
"  XXXXXX.XoooooooO.XXXXXXX  ",
"  .......XoooooooO........  ",
"  OOOOOO.XoooooooO.OOOOOOO  ",
"  oooooO.XoooooooO.Xoooooo  ",
"  oooooO.XoooooooO.Xoooooo  ",
"  XXXXXX.XXXXXXXXX.XXXXXXX  ",
"  ........................  ",
"  OOOOOOOOOOO.OOOOOOOOOOOO  ",
"  ooooooooooO.Xooooooooooo  ",
"  ooooooooooO.Xooooooooooo  ",
"  ooooooooooO.Xooooooooooo  ",
"  ooooooooooO.Xooooooooooo  ",
"  ooooooooooO.Xooooooooooo  ",
"                            ",
"                            "
};
