/* XPM */
static char *d871e647051540febb1fe33172adeec0SIwJVi2brK7ug3c5[] = {
/* columns rows colors chars-per-pixel */
"32 32 192 2 ",
"   c None",
".  c #00154F",
"X  c #061E52",
"o  c #0A2558",
"O  c #0F2758",
"+  c #0E2759",
"@  c #1B2E5B",
"#  c #1C2F5C",
"$  c #1D2F5C",
"%  c #1F315D",
"&  c #20315D",
"*  c #20325E",
"=  c #24345F",
"-  c #213362",
";  c #2D3960",
":  c #2E3960",
">  c #2E3A60",
",  c #2E3B60",
"<  c #2F3B60",
"1  c #2D3C63",
"2  c #353F62",
"3  c #313D65",
"4  c #323F65",
"5  c #303F67",
"6  c #374163",
"7  c #334166",
"8  c #394365",
"9  c #394467",
"0  c #32446C",
"q  c #3B4668",
"w  c #3D4668",
"e  c #3D496C",
"r  c #364970",
"t  c #3D4E73",
"y  c #414C6D",
"u  c #404C6E",
"i  c #444D6C",
"p  c #435275",
"a  c #445375",
"s  c #465374",
"d  c #445376",
"f  c #455376",
"g  c #445475",
"h  c #455476",
"j  c #465476",
"k  c #48577C",
"l  c #495879",
"z  c #4B597A",
"x  c #4C5A7A",
"c  c #4C5A7B",
"v  c #4C5B7C",
"b  c #535B77",
"n  c #565F7B",
"m  c #58607B",
"M  c #59617B",
"N  c #5A637C",
"B  c #5B637D",
"V  c #5E667F",
"C  c #536383",
"Z  c #556484",
"A  c #566585",
"S  c #566684",
"D  c #5F6780",
"F  c #5F6880",
"G  c #5F6881",
"H  c #576888",
"J  c #5A6988",
"K  c #5B6A8B",
"L  c #5E6C8A",
"P  c #5D6D8D",
"I  c #606881",
"U  c #616981",
"Y  c #606982",
"T  c #646C85",
"R  c #646C86",
"E  c #637290",
"W  c #647391",
"Q  c #647491",
"!  c #657492",
"~  c #657592",
"^  c #667592",
"/  c #6B7996",
"(  c #6D7A95",
")  c #6A7A99",
"_  c #6F7F9B",
"`  c #767F95",
"'  c #71819E",
"]  c #7686A2",
"[  c #7A89A4",
"{  c #7A8AA4",
"}  c #7B8AA4",
"|  c #7B8AA5",
" . c #7C8BA6",
".. c #7E90AC",
"X. c #838DA2",
"o. c #8A93A6",
"O. c #8091AD",
"+. c #8494AE",
"@. c #8594AE",
"#. c #8495AE",
"$. c #8595AE",
"%. c #8696AF",
"&. c #8D97AC",
"*. c #8596B0",
"=. c #8696B0",
"-. c #8696B1",
";. c #8697B1",
":. c #8797B1",
">. c #8897B0",
",. c #8798B1",
"<. c #8798B2",
"1. c #8998B1",
"2. c #8898B2",
"3. c #8899B2",
"4. c #8899B3",
"5. c #8999B3",
"6. c #8A9AB3",
"7. c #8D9AB1",
"8. c #8A9AB4",
"9. c #8A9BB4",
"0. c #8B9BB4",
"q. c #8B9BB5",
"w. c #8B9CB5",
"e. c #8C9CB5",
"r. c #8D9CB5",
"t. c #8C9CB6",
"y. c #8D9DB6",
"u. c #8C9CB7",
"i. c #8C9DB7",
"p. c #8E9DB6",
"a. c #8E9DB7",
"s. c #8E9EB6",
"d. c #8E9EB7",
"f. c #8F9FB7",
"g. c #8D9FBA",
"h. c #8EA0BB",
"j. c #99A2B4",
"k. c #9BA5B7",
"l. c #9CA5B7",
"z. c #91A1BA",
"x. c #96A3B9",
"c. c #91A2BD",
"v. c #91A3BD",
"b. c #92A3BD",
"n. c #91A3BE",
"m. c #93A4BE",
"M. c #93A4BF",
"N. c #95A6BF",
"B. c #9CA6B8",
"V. c #9DA6B8",
"C. c #9DA7B8",
"Z. c #9EA7B9",
"A. c #9FA9BB",
"S. c #A1ABBC",
"D. c #A4ADBF",
"F. c #9FADC3",
"G. c #99ABC7",
"H. c #9AABC7",
"J. c #A0ACC0",
"K. c #A5AFC2",
"L. c #A0AEC4",
"P. c #A1AFC4",
"I. c #A1AFC5",
"U. c #A7B6CD",
"Y. c #ADB9CC",
"T. c #B0BDD0",
"R. c #B1BED1",
"E. c #B2BFD2",
"W. c #B3BFD2",
"Q. c #B2BFD3",
"!. c #B3BFD3",
"~. c #B3C0D3",
"^. c #B5C0D1",
"/. c #B6C1D2",
"(. c #B7C1D2",
"). c #B6C1D3",
"_. c #B7C2D2",
"`. c #B7C4D6",
"'. c #B9C3D4",
"]. c #BCC7D8",
"[. c #BEC9DA",
"{. c #BCC9DD",
"}. c #C0CBDD",
"|. c #C0CBDE",
" X c #C1CCDD",
".X c #C1CDDE",
"XX c #C2CEDF",
"oX c #C3CFE0",
"OX c #C4D0E2",
"+X c #C6D1E2",
"@X c #C8D3E4",
"#X c #CBD6E8",
/* pixels */
"                                                                ",
"                                                                ",
"    e.q.6.e.q.6.e.6.6.e.6.F.).= S $.e.e.0.0.0.0.t.6.0.0.q.t.    ",
"    q.H.b.b.b.b.b.b.b.b.g.U.XX3 L e.m.m.b.b.b.b.b.b.b.b.H.t.    ",
"    e.b.e.6.e.6.e.6.e.6.6.J.(.< S $.0.0.0.0.0.0.0.0.0.0.b.0.    ",
"    6.b.6.e.6.e.6.e.6.e.-.J.(.< S $.t.t.0.0.0.0.0.0.0.0.b.6.    ",
"    6.b.e.6.e.6.e.6.q.q.6.F.'.< S @.t.6.0.0.0.0.0.0.0.0.b.6.    ",
"    e.b.6.e.6.e.6.e.6.q.-.F.'.= S -.t.q.0.0.0.0.0.0.0.0.b.t.    ",
"    e.m.t.t.t.t.t.0.t.0.6.L.'.< S $.e.t.t.t.t.t.e.e.t.t.m.t.    ",
"    ^ ) ! ! ! ! ! ! ! ! ! / / 8 K ! ^ ! ! ! ! ! ! ^ ! ! ) ^     ",
"    & - & $ & $ $ u < $ & $ O X & & & @ 7 e $ $ % & % $ - &     ",
"    C.K.C.C.C.C.C.i o.S.C.C.l.C.C.C.l.S.` N S.C.l.C.C.C.K.C.    ",
"    Q.{.Q.Q.Q.Q.@Xn &.Q.Q.Q.Q.Q.!.~.Q.oXl.n Y.Q.Q.~.Q.Q.{.Q.    ",
"    -.g.,.-.-.q.XXU 0 ' 6.$.-.$.-.$...Q.S.o S q.-.-.-.-.g.-.    ",
"    $.e.$.$.@.>.).B j [ e.0.0.0.6.q.$.Q.C.& ! -.$.$.-.$.e.$.    ",
"    S K S S S A C q z [ g.0.0.0.e.w.$.Q.C.& J S S S S S K S     ",
"    < 4 2 = < < = 3 c [ e.0.0.0.6.e.$.~.S.. = < < < = 2 4 <     ",
"    ).{.(.).).).'.N j [ f.0.0.0.e.6.$.Q.j.R  X(.W.W.(.).}.(.    ",
"    F.U.J.J.J.I.+XV j [ f.t.e.e.w.w.-.~.l.i 0.L.K.J.J.F.U.J.    ",
"    q.b.w.w.q.e.@XV j  .z.e.e.f.e.e.,.`.S.o P e.0.0.q.q.b.q.    ",
"     .+. .} }  .S.b k '  .} } } [  .] x.X.4 E [ [ [ [ [ .. .    ",
"    p k g g j p e < s c g s s v g g g t 4 9 c j g j g j k g     ",
"    V T V V V V V G V V V V N 6 D D D V U G D V D D D D R D     ",
"    {.#X X XXXXXXXXX[.XX XXXW.w ].XXXX}.}.XX}.XX}.XX}.}.#XXX    ",
"    e.G.r.e.e.e.e.e.z.e.r.P.(.< R %.z.e.f.e.f.e.e.e.e.f.m.e.    ",
"    6.b.6.6.6.r.6.q.6.6.,.J.(.2 S $.0.6.6.q.6.6.q.t.6.6.b.e.    ",
"    e.b.0.0.0.0.e.6.e.6.,.F.~.= S *.0.0.t.0.0.0.t.0.0.0.b.t.    ",
"    r.b.0.0.0.0.6.e.6.e.,.F.(.3 S +.t.0.0.0.0.0.6.0.0.0.b.e.    ",
"    q.H.b.b.b.b.b.b.b.b.h.U.{.4 K u.b.b.b.b.b.b.b.b.b.b.H.6.    ",
"    w.w.0.0.0.0.6.q.e.6.6.L.(.< S *.q.q.6.t.0.0.0.0.6.t.q.t.    ",
"                                                                ",
"                                                                "
};
