/* XPM */
static char *_a29b3ebbd6948d4c30859d62a504138A1a9Ww73Tckl0iQd[] = {
/* columns rows colors chars-per-pixel */
"64 64 150 2 ",
"   c None",
".  c #031F54",
"X  c #152857",
"o  c #1A2957",
"O  c #102758",
"+  c #132959",
"@  c #1D2F5C",
"#  c #1D305D",
"$  c #26335D",
"%  c #29365E",
"&  c #2C395F",
"*  c #213563",
"=  c #293760",
"-  c #243965",
";  c #2E3D66",
":  c #2D3F68",
">  c #343F63",
",  c #364165",
"<  c #3A4466",
"1  c #35456B",
"2  c #3A466A",
"3  c #37496F",
"4  c #3B496D",
"5  c #3C4C72",
"6  c #424B6B",
"7  c #47506F",
"8  c #414E71",
"9  c #455374",
"0  c #4B5473",
"q  c #4F5874",
"w  c #475678",
"e  c #485779",
"r  c #47587C",
"t  c #4C5B7C",
"y  c #525A75",
"u  c #545E7A",
"i  c #52607F",
"p  c #59627C",
"a  c #4D5D82",
"s  c #546383",
"d  c #586786",
"f  c #596887",
"g  c #576888",
"h  c #5A6A8A",
"j  c #5F7091",
"k  c #616A84",
"l  c #62718F",
"z  c #6B748A",
"x  c #6F788E",
"c  c #70798F",
"v  c #637391",
"b  c #677896",
"n  c #6C7A96",
"m  c #6E7E9A",
"M  c #737C92",
"N  c #707F9B",
"B  c #768097",
"V  c #798297",
"C  c #72819D",
"Z  c #7C8499",
"A  c #7F889D",
"S  c #7686A2",
"D  c #7987A1",
"F  c #7788A7",
"G  c #7C8BA5",
"H  c #7D8DA9",
"J  c #80899D",
"K  c #868FA2",
"L  c #808FA9",
"P  c #8790A4",
"I  c #8992A5",
"U  c #8595AE",
"Y  c #8895AD",
"T  c #8F99AC",
"R  c #909AAD",
"E  c #8697B1",
"W  c #8798B1",
"Q  c #8B9BB4",
"!  c #8F9FB9",
"~  c #909FB6",
"^  c #909FB8",
"/  c #8FA0BA",
"(  c #9AA3B6",
")  c #92A2BA",
"_  c #9BA7BC",
"`  c #9CA9BD",
"'  c #A1ABBC",
"]  c #94A5C1",
"[  c #97A8C3",
"{  c #9CABC3",
"}  c #A2AFC4",
"|  c #A4B1C6",
" . c #A8B2C4",
".. c #A6B4C9",
"X. c #ABB7CA",
"o. c #AEBACD",
"O. c #B4BECF",
"+. c #A3B6D3",
"@. c #ADBCD2",
"#. c #B0BDD1",
"$. c #B0BDD0",
"%. c #B2BFD3",
"&. c #B4BFD0",
"*. c #B5BFD0",
"=. c #B5BFD1",
"-. c #B1BED1",
";. c #B5C0D1",
":. c #B6C0D1",
">. c #B6C1D2",
",. c #B7C1D2",
"<. c #B7C1D3",
"1. c #B7C2D3",
"2. c #B5C2D5",
"3. c #B5C1D3",
"4. c #B8C3D5",
"5. c #BAC5D6",
"6. c #BBC6D7",
"7. c #BCC7D7",
"8. c #B9C3D4",
"9. c #BCC7D8",
"0. c #BCC7D9",
"q. c #BEC9DB",
"w. c #BECADB",
"e. c #BEC9DC",
"r. c #BECADC",
"t. c #BFCADC",
"y. c #BECADD",
"u. c #BDC9DB",
"i. c #BFCDE2",
"p. c #BFCDE2",
"a. c #C1CCDD",
"s. c #C1CCDE",
"d. c #C1CDDE",
"f. c #C1CDDF",
"g. c #C2CDDE",
"h. c #C2CEDF",
"j. c #C3CEDF",
"k. c #C1CCDD",
"l. c #C3CFE1",
"z. c #C4CFE1",
"x. c #C3CEE0",
"c. c #C6D1E2",
"v. c #C7D2E3",
"b. c #CBD7E7",
"n. c #C8D4E5",
"m. c #CBD7E8",
"M. c #CEDBEE",
"N. c #CBD8EC",
"B. c #D1DDEF",
"V. c #D1DDEF",
/* pixels */
"                                                                                                                                ",
"                                                                                                                                ",
"                                                                                                                                ",
"                                                                                                                                ",
"            Q                                                                                                     Q             ",
"          Q Q Q Q Q Q Q Q Q Q Q Q Q Q Q Q Q Q Q Q W ^ @.h.' p @ w v G Q ! Q Q Q Q Q Q Q Q Q Q Q Q Q Q Q ! Q Q Q Q Q Q           ",
"        Q Q +.[ [ [ [ [ [ [ [ [ [ [ [ [ [ [ [ [ [ ] [ p.B.o.k * a m W [ { [ [ [ [ [ [ [ [ [ ] [ [ [ [ [ [ [ [ [ [ +.! Q         ",
"          Q [ ) Q ! Q ! Q Q ! ! / Q Q / Q Q / Q Q W ) 3.h.' p # r v H ! / Q Q ! Q / Q Q / Q / Q Q / Q Q Q Q ! Q / [ Q           ",
"          Q [ Q Q Q Q Q Q Q Q Q Q Q Q Q Q Q Q Q Q Q Q @.a.' p @ r v G Q / T Q Q Q Q Q Q Q Q Q Q Q Q Y Q Q Q Q Q Q [ Q           ",
"          Q [ Q Q Q Q Q Q Q Q Q Q Q Q Q Q Q Q Q Q U / O.a.' p @ w v G Q Q Q Q Q Q Q Q Q Q Q Q Q Q Q Q Q Q Q Q Q ! [ Q           ",
"          Q [ ! Q Q Q Q Q Q Q W Q Q Q Q Q Q Q Q Y U / O.a.' p @ e v G Q / Q Q Q Q Q Q Q Q T Q Q Q Q Q Q Q Q Q Q Q [ Q           ",
"          Q [ Q Q Q Q Q Q Q Q Q Q T Q Q Q Q Y Q Q E Q O.u.' p @ e v G Q Q Q Q Q Y Q Q Q Q Q Q Q Q Q Q Q Q Q Q Q ! [ Q           ",
"          Q [ Q Q Q Q Q Q Q Q Q Q Q Q Q Q Q Q Q Q U Q %.a.' p @ e v G Q ! Q Q Q Q Q Q Q Q Q Q Q Q Q Q Q Q Q Q Q Q [ Q           ",
"          Q [ Q Q Q Q Q Q Q W Q Q Q Q Q Q Q Q Q Q U / @.a.' p @ w v H Q Q Q Q Q Q Q Q Q Q Q Q Q Q Q Q Q Q Q Q Q Q [ Q           ",
"          Q [ ~ Q Q Q Q Q Q Q Q Q Q Q Q Q Q Q Q Q U / O.a.' p # w v G Q ~ Q Q Q Q Q Q Q Q Q Q Q Q Q Q W Q Q Q Q Q [ Q           ",
"          Q [ Q Q Q Q Q Q Q Q Q Q Q Q Q Q Q Q Q Q U / %.h.' p # w v G Q ! Q Q Q Q Q Q Q Q Q Q Q Q Q Q Q Q Q Q Q / { Q           ",
"          Q { ) Q ^ Q Q ) Q ! Q ) Q ~ Q ) Q ) Q Q W ) >.c. .p + w v H / ) / / Q / Q / Q Q / / Q / Q / Q / Q / / / { Q           ",
"          E ] W E U Q U U E Y U U W U U U E U Q U U Q X.>.( p $ e l D W Y Y U U W W Y U W Y U U Y W Y W Y W Y U W / W           ",
"          m H S C C C C C C C C C C C C C C C C C m C U Q B 0 < i l n C C C C C C C C C C C C C C C C C C C C C C H C           ",
"          d j g d d d d f f d d f f d d d d d d g g g s d q 2 4 i h f f f f d g d d d d d f d f d d d d d f g f h j g           ",
"          1 5 1 1 1 1 1 1 1 1 1 1 2 9 0 6 2 1 1 1 2 1 1 - $ @ % 1 5 4 1 1 1 1 , 2 9 9 6 1 1 1 1 1 1 1 1 1 1 1 1 1 5 1           ",
"          = ; = % % % % % % % % $ & , 2 , = $ % $ % % % $ $ $ $ % % % % % % % % & < 2 , % % % % % % % % % % % % = ; %           ",
"          Z K A Z Z Z Z Z Z Z Z Z M y , p V A Z Z Z Z V Z Z Z Z Z V Z Z Z Z Z Z x q < p Z J Z V V V Z V Z V Z V Z P Z           ",
"          =.z.=.=.O.O.=.=.O.=.=.>. .c < A O.7.>.O.O.;.O.O.2.O.>.;.;.;.;.;.;.;.>.' k 6 T ;.7.>.;.;.;.;.;.>.;.;.;.<.z.>.          ",
"          p.M.x.y.y.y.y.y.y.0.x.m.u.A < A 2.y.w.w.y.y.w.u.u.y.u.w.w.u.y.u.u.c.b.>.M < I 5.h.y.y.y.y.y.y.y.y.y.y.x.M.p.          ",
"          } @.| } } } } } { } o.h.5.J , p P ) } | | } | | | | } | | } } { | @.x.;.V > k Y ) { | } } } } } } } } | @.}           ",
"          Q ] Q W W E Q W E U { 5.8.P > * t n H Q Q W W W W W W W W Q Q U U } u.;.Z % ; i m U Q Q E W W Q E W W Q ] W           ",
"          Q ] Q Q Q W Q Q E U { k.a.I > * t v H Q W W W W W W W U W U W U U } u.O.Z % - t m U Q Q Q Q W Q Q Q Q Q [ Q           ",
"          Q [ ! Q Q Q Q Q Q E { u.5.P > ; d m U / Q Q Q Q Q Q Q Q Q Q Q W W } y.O.Z % 1 f N W ^ Q Q ! Q Q Q Q Q ! [ Q           ",
"          G W H G G G G G F D W } _ M , 1 s m U Q Q Q Q Q Q Q Q Q Q Q Q W W | y.>.V % 4 h n F G G G G G G G H G H E H           ",
"          v m v v v v v v v l b M n u , 6 s m U / Q Q Q Q Y Q Q Q Q Q Q E Q { y.O.Z = 5 h l v v v v v v v v v v v m v           ",
"          w a w w w w w e e e 9 5 3 , 2 9 d m U / Q Q Q Q Q Q Q Q Q Q Q E W | y.%.Z % , u t w w w w w w w w w w w a w           ",
"          # * # @ @ @ @ # # # @ O @ & < 9 i C U / Q Q Q Q T Q Q Q Q Q Q U W | u.O.Z $ . $ # @ @ @ @ @ @ @ @ @ @ $ * @           ",
"          p f p p p p p p p p p p y 7 < 9 i C U Q Q Q W Q Q Q Q Q Y Q Q W W | u.;.Z % < p p p p p p p p u u p p u k p           ",
"          ' o.} ' ' ' ' ' ' ' ' ' ~ z 1 3 i C H / Q Q Q Q Q Q Q Q Q Q Q W W | y.O.M < B '  .' ' ' ' ' ' ' ' ' ' ' O.'           ",
"          h.M.c.a.w.h.w.w.w.p.p.v.1.A , , s C U / Q Q Q Q Q Q Q Q Q Q Q W W } u.O.c 6 T u.c.h.a.a.a.a.a.a.k.k.k.z.V.k.          ",
"          2.y.3.;.;.;.o.;.;.;.2.v.7.I > ; s n U / Q Q Q Q Q Q Q Q Q Q Q W E } y.O.M < B ' o.o.%.O.o.%.#.#.#.%.%.%.l.%.          ",
"          / { / / ~ / / / / W ` w.8.K > ; s C H Q Q Q Q Q Q Q Q Q Q Q Q W Q } y.;.Z % 9 l D Q ) ) Q ~ ~ ~ ~ ^ ^ ) [ )           ",
"          W ) Y W W U U H H H ` w.7.K , ; s C Y / T Q Q Q Q Q Q Q Q Q Q E Q | y.>.Z $ * r b U W Q W W W E E W W W ] W           ",
"          / { / / Q Q / / / / } a.a.K > ; s n W ) / / / Q / / Q / Q ! Q Q Q ..c.4.A $ , d C Q ) Q Q Q ~ Q ! Q Q ! { Q           ",
"          U ! E H U U H U H H ) o.X.Z , 1 s C G E U U U U U U U U U U U H U _ O. .M = 4 f m L U U U U U U U U U E ! E           ",
"          m F N C n C C C C C C I P k , 7 f v n m m m m m m m m m m m m m n S U G p , 0 h v n C m m m m m m m N m F m           ",
"          s h d s s s a i a s a a t 5 < 9 s f s s s s s d s d s s s d s s s s s e 2 2 q d d s d s s s s s s s s g j a           ",
"          : 1 : ; : , , , , 1 - - # + o & 1 1 , ; ; > ; ; 2 9 6 , ; ; ; : , - $ # X @ = 1 1 ; ; ; ; ; > ; ; : > : 1 :           ",
"          > 2 > , > > > > > > , > > ; , , , ; > > > > > > < < < , > , > > > , , , > > > > > > > > > > > > > > > > < >           ",
"          K R U P P K K K K K K K K K P P K K K K K K P J z < 0 V I P P K K P J K P P P K K K K K K K K K K K K P ~ K           ",
"          4.n.0.4.8.8.4.8.8.8.8.1.8.8.8.8.8.1.1.5.8.4.7.8.R 7 k ' a.7.8.8.8.8.8.4.8.8.8.8.8.8.8.8.4.8.8.4.8.4.4.0.n.4.          ",
"          0.m.k.0.w.0.0.7.7.w.7.7.w.w.7.w.w.7.7.0.5.a.n.c.' q p ` u.u.u.7.u.u.u.u.u.0.u.7.u.u.9.u.0.u.0.u.0.0.0.y.N.y.          ",
"          { @.{ { { { { { { { ` { ` { { { ` } { ` [ } 4.g.' u 2 n Y / { { { { ` { { { { { { { { { { { { { { { ` { @.{           ",
"          E ) W E W E E W E W W E E W W W W W W E L W O.k.' p + 4 h C W Q W W U E E Y E Y W U E Y E W Y E E U Q W ] E           ",
"          W ] Q Q E W W W W W W W W W U W W W W E U Q #.k.' p X 5 h D Q Q W Q Q Q W W W Q E U E Q E Q E W W W W Q ] Q           ",
"          Q [ ! Q Q Q Q Q Q Q Q Q Q Q Q Q Q Q Q W E ^ #.g.' u @ q v H Q Q Q Q Q Q Q Q Q Q Q Q Q Q Q Q Q Q Q Q Q Q [ Q           ",
"          Q [ Q Y Q Q Q Q Q Q Q Q Q Q Q Q Q Q Q Q E ^ #.k.' p $ r v G Q ~ Q Q Y Q Q Q Q Q Q Q Q Q Q Q Q Q Q Q Y Q [ Q           ",
"          Q [ Q Q Q Q Q Q Q Q Q Q Q Q Q Q Q Q Q W E ~ #.k.' u @ w l G / / Q Q Q Q Q Q Q Q Q Q Q Q Q Q Y Q Q Q Q Q [ Q           ",
"          Q [ ! Q Q Q Q Q Q Q Q W Q Q Q Q Q Q Q W E ~ #.k.' u @ r v G Q Q Q Q Q Q Q Q Q Q Q Q Q Q Q Q Q Q Q Q Q Q [ Q           ",
"          Q [ Q Q Q Q Q Q Q Q Q Q Q Q Q Q Q Q Q Q E ~ #.k.' u $ w l G Q Q Q Q Q Q Q Y Q Q Q Q Q Q Q Q Q Q Q Q Q ^ [ Q           ",
"          Q [ ) Q ~ Q Q ^ Q Q ^ Q ! Q Q ! Q ! Q Q E ) %.z.' s @ w v H ! / Q Q ! Q Q ! Q ! Q Q ! ! Q Q ! Q Q ! Q ) [ Q           ",
"        Q ! +.[ [ [ [ [ [ [ [ [ [ [ [ [ [ [ [ [ [ ] { x.V.o.k * a C W [ { [ [ [ [ [ [ [ [ [ [ [ [ [ [ [ [ [ [ [ [ +.Q Q         ",
"          Q Q Q W Q Q Q Q Q Q Q Q Q Q Q Q Q Q Q Q E ~ %.k.' p @ w v G Q ! Q Q Q Q Q Q Q Q Q Q Q Q Q Q Q Q Q Q Q ! Q Q           ",
"            Q                                                                                                     Q             ",
"                                                                                                                                ",
"                                                                                                                                ",
"                                                                                                                                ",
"                                                                                                                                "
};
