/* XPM */
static char *result[] = {
/* columns rows colors chars-per-pixel */
"64 62 61 1 ",
"  c #000045",
". c #05144C",
"X c #152050",
"o c #192351",
"O c #1E2954",
"+ c #232D57",
"@ c #252F58",
"# c #273059",
"$ c #2B355C",
"% c #2F385E",
"& c #303A5F",
"* c #333D61",
"= c #374164",
"- c #3A4466",
"; c #364168",
": c #3C4668",
"> c #3E496A",
", c #424D6D",
"< c #45506F",
"1 c #434E71",
"2 c #465171",
"3 c #4A5573",
"4 c #4E5976",
"5 c #4B5678",
"6 c #4F5A79",
"7 c #525D7A",
"8 c #55617E",
"9 c #556181",
"0 c #5A6682",
"q c #5D6985",
"w c #5E6B89",
"e c #606C87",
"r c #626E89",
"t c #65728D",
"y c #68758F",
"u c #677491",
"i c #697691",
"p c #6D7A94",
"a c #6F7D99",
"s c #707D97",
"d c #717F99",
"f c #75839C",
"g c #78869F",
"h c #7785A0",
"j c #7887A0",
"k c #7C8AA4",
"l c #7E8EA8",
"z c #808FA9",
"x c #8393AC",
"c c #8797B0",
"v c #8897B1",
"b c #8C9CB5",
"n c #8F9FB8",
"m c #8FA0B9",
"M c #91A2BB",
"N c #96A7C2",
"B c #97A8C3",
"V c #99AAC5",
"C c #9CAEC9",
"Z c #A4B6D4",
"A c None",
/* pixels */
"AAAAAAAAAAAAAAAAAAAAAAAAAAAAAAAAAAAAAAAAAAAAAAAAAAAAAAAAAAAAAAAA",
"AAAAAAAAAAAAAAAAAAAAAAAAAAAAAAAAAAAAAAAAAAAAAAAAAAAAAAAAAAAAAAAA",
"AAAbbbbbbnnf3<fbmbbmnbbcvbbbvbbbnnbi>7lnmbbbbbbvvbbbbvbbbnAAAAAA",
"AAbbMbbbbnnf3,fbmbbMbbbbbbbbbbbbbnci>7lmbbbbbbbbbbbbvbbbbMbAAAAA",
"AAbMZVBBBCVx65kBMMCMCMMMBBBMVVBBBCBh,0cCVMVVVMVMBBBBBBBBCZnAAAAA",
"AAbbVMnnnMMj52fnmnMMMMMnMMnbnMnbnMnp>8lmmbmMMmmmMnbbmmnbMVnAAAAA",
"AAnnMxzbbvxi,<fbMnvzzvbvlxbbxlxbbclr:7knmbvzxvbxlxnbxxxnnnlAAAAA",
"AAMMvwrxmkq,*5fbMMxt8znz0rxnf0pbbd7:*0lmMmgqrvbf8pbbi8gmva7AAAAA",
"AAnbk24kvp,##4gbMbg4<fvf<4zvt,8zxt=+%qlmmvp<7kvy>qxz0>ivl0%AAAAA",
"AApphiipppiq-4jmxfyiiipiiiisipsippi6=qxmkpyyipppyppppippahiAAAAA",
"AA*,aclq2pbk32jmg38zvt,tvz83svz47jbp>8xbt<tvz8<fvg77jbp<wbnAAAAA",
"AA Oqkf3$wkp<>yg8$<fz8+8zg2#rzp==pjt=2fg4#8kf<$tzp==pkw#5klAAAAA",
"AAO#>63=#>4<&%<4,#&34=#,77=#,4<$%<4>$=23=#-43&$<84%$<4>#*67AAAAA",
"AA356>>442><33<,<<3,,24,&&,42,,43<,<33,<<4<,<33=%=<42,2553,AAAAA",
"AAffkfpffffpffpffffssff8=,tffssffpaffpfpffssffp8&4igdaafhkaAAAAA",
"AAbbMbbbbvvbcbbvbbvbbnbs,4gbbvbbbvbbbbbvbbvbvmct-8xmbbbbnNbAAAAA",
"AAnnVMnMMmmmMMmmmMmmmMMg,4zMMmMMMMmMMMmmmmmmMMby>qxMmmmMMCnAAAAA",
"AAbbBbbnnnbbnnbbbmmbbMmf,3fbbbbmmbbbmbbbmmmbmMby-qxmmbmbMVnAAAAA",
"AAbvBMvzkxbvzzvbxzzvbxzr,4zbMbvzzxbxzzbbzzxbbvg8=qzmmbxkvMmAAAAA",
"AAbbVMxt8gmxe8zmz8rvbf7,&7gbMMz8ezmg8tvbp8smvi3==rxMMbf8pMMAAAAA",
"AAbbBbj8,ycg42gvs,8zxy,@$8zbbbs33gxs,8zxe,exz8=#=rzmmxt,0cnAAAAA",
"AAMmnfypppippsiiiisipss8=7zbzsyssipispyiispiifp4=rcmgyyfafiAAAAA",
"AAMnx37kbp,exxr,ibz72gbf,4zbp,8vxe,ibk72gbf28kbi=wvxr,pvxw*AAAAA",
"AAkfu%-pk8@3gg4@8gi,%rgy,,yf8@4fg3$8gs>&ygr%-fg8=7fp<#8ka2.AAAAA",
"AA332%%,5:#-47:#-3,&$,3,&&,2-#=<2&$,74&%,3>$$<3=$=<,*#-52*#AAAAA",
"AA,15552<34<&&,44<2442,2442<344<244,%&343,3433<343<<443,595AAAAA",
"AAfflhfffggt,-rggfffgfsffffffffffgf8=2igffffffffgffffgffhlhAAAAA",
"AAbbBbbbbmng3,fbnbbbbbbbbbbbbbbbbMbi,7zmmbbbbbbbbbbbbbbbmVbAAAAA",
"AAnnVMmmnMMk4<fmMnbMMMmMMMmmmMmmMMbs,7zMmmmMmnnmMmnnmMmmNCMAAAAA",
"AAbbBmnbbmMg3<fbbbbbbbbbbbbbbmbbbMbp-7zmnbbnnbbnmnbbbnmbmCmAAAAA",
"AAnnmklcbxlt,2fbMbbzzbbxzzbbxgzbbxge,8zbMbxkkbbxjxbblkxbbbjAAAAA",
"AAMMc0qxng8:%4fbMMze7gbz88xmf7ybbs4&&8zbMmg8qxnd7ibxu6fbbi2AAAAA",
"AAbck24jxp<$$4fbnvg7<sxf<7kxt,ezzt-#&ezmnxp<7gxt,ezz8,ixkq*AAAAA",
"AAtuffdiypfr,3jnxiysssiissiysdsyyff8-8xbgyyfdiypdpyypfsydjfAAAAA",
"AA$-acx0,pbg22jnd,7zvt-rvx8,sck33gbs,8xbr,tvz8,dbg33kbp,qbnAAAAA",
"AA O9fd,#0gp,:rf0#,sf7+4gd<#0gy&&ygr=2is3+7fs,$eky&=ig8#2fkAAAAA",
"AA@#>1,*$:2,&%><:$&,<*$,43=$:2,%&,2:$&<<=$=,,&$,42&&,,-$*32AAAAA",
"AA779237732374334743277<%*274227432474334743374,$:473347972AAAAA",
"AAjjzgfgggfggggffggggkgr-<ikgggggggggggfgggfggf8&4skgfggklfAAAAA",
"AAnnNnnbnbbnbbnbnnbnbMbd,2kMnbnbbbbbbbbbmbbmmMvt>qxmmbbbMVnAAAAA",
"AAnnBnnmMnnnMMnnnMnnnMMg,4kMMnnMMmnmMmmmmMmmmMmy:0xMMnMMNVnAAAAA",
"AAbbBbbnnnbbnnbbbnnbbMnd,4gnnbbnnbbbmbbbbnbbbMbr:0xMbbbnNVbAAAAA",
"AAbvBmvlgxbcjkxnxkkvnxge,4gnnbckkxbxgkvbzgzbvxf8=exnnbxglNbAAAAA",
"AAbbVMxw4fnz88zmg4ecnf3*&7gbMMk78zng7rvbp3sbvt,&=ezMMnd4unNAAAAA",
"AAbbBbg8,pxg43fxs28kzy,&%7znncd44gxp<8kzr,rzzq-$*rxnbzt10cbAAAAA",
"AAMmnitdfstyffitifdytsfr-7zbzttsfytpffyysfsryff8-rbbhrpffdrAAAAA",
"AAMbl<5kvi,0xce-ybz4,fbf,4zvy-exxq:yvk4,fbf,7zvy-exx0:pbzq$AAAAA",
"AAgpr%=tg7+2dd3@7dy-$qgr-,ts4+2sd2+8fp:$rfe$=yf8&3sy,+9dp1.AAAAA",
"AA2<1%*>,-$-23:$=,,&&-,,%&,,-%&,,&$,3<&%,,:&&,,-&&,,&&=,,=$AAAAA",
"AA2498753783&&387447843777437874477,%-484347743787448874708AAAAA",
"AAjjxjjgjljy,,tjzgggggggkggggkgggzge=3skkggkkggggggggkggkckAAAAA",
"AAmbVnnnnMMg2,gmMbMbbmmnnnnnnnnbnMby,7zMnnbnnnnbmnnbbnmmMVbAAAAA",
"AAnnBMmnmMMj3<fmMmMMMMbMMnbnnMnnnMMs,7zMnbnMMnnmMMbmmMmbMCMAAAAA",
"AAbbBnbbbMMg3<dnbbbbbbbbnbbbbbbbbMbp,7knnbbnbbbbbbbbbbbbMVnAAAAA",
"AAmmMhjbnxgt,2fbMmbggxbxgkvbzgzbbzf8-8znnbxgkcbzgzbbzgzbncfAAAAA",
"AAMMx78xng4&$4fbMMz87gMg48xns3rbbi,&&8zMMnf40xbs3tvvr3fbcr:AAAAA",
"AAvxh46glp4=#4gmmxf83szf47gzy38zzr,%&eznbxy38gzt<qllq2ilkw>AAAAA",
"AAwwfggitpjt,3jmzrrfgiriggyrsgfttfgq-8xbgrygfyrsjdttfjprplkAAAAA",
"AAo=pcx8-ibk3<gbs,8zvr=exz8:svg22gbs,8xcr=tcz7:dbg,2jbp-9vnAAAAA",
"AAX$9fa2%qfy<>tp8&<pf7&7fs3&8ft--tfe:3yp3%7fs,&rft-:tf0*5hhAAAAA",
"AA=-222>=,3<>-<<,-,<3,=,2<,=,2<--<2,-,,2,=,2<:-,2,::12,->53AAAAA",
"AA:-:$$=-=#%=-*#&==$$&==$$=-&$&--&$&-&&$*-&$%=-&$&-=%$*-;*$AAAAA"
};
