/* XPM */
static char *bc9dc67f56224bdcfbbed72fa546cca3fL6V9R5fv57qImsS[] = {
/* columns rows colors chars-per-pixel */
"26 26 5 1 ",
"  c None",
". c #262B44",
"X c #3A4466",
"o c #5A6988",
"O c #8B9BB4",
/* pixels */
"                          ",
" XXXXXXXOOOOOXXXXXXoOOOoX ",
" XXXXXXXoOOOoXXXXXX.ooo.X ",
" XOOOOXX.ooo.XXXXXXX...XX ",
" OOOOOOXX...XXOOOXXXXXXXX ",
" OOOOOOXXXXXXOOOOOXXXXXXX ",
" oOOOOoXXXXXXoOOOoXXXXXXX ",
" .oooo.XXXXXX.ooo.XXXXOOX ",
" X....XXXOOOXX...XXXXXXXX ",
" XXXXXXXOOOOOXXXXXXoXXXXX ",
" XXXOXXXOOOOOXXOXXXXoooXX ",
" XXXOXXXoOOOoXXXXXXXXXXXX ",
" OOXXOXX.ooo.XXOOOXXXOXXO ",
" OOOXXXXX...XXOOOOOXXXXOO ",
" OOoXXXXXXXXXXOOOOOOXXXoO ",
" oo.XXXXXXXXXXOOOOOOOXX.o ",
" ..XXXoOXXXXXXoOOOOOoXXX. ",
" XXXXXXXXXXOXX.ooooo.XXXX ",
" OXXXXXXXXXOXXX.....XXXoo ",
" XXOOOXXXXXXOXXXXXXXXXXXX ",
" XOOOOOXXXXXXXXXXXXXXXXXX ",
" XOOOOOXXXXXXXXXXXXXOOOXX ",
" XoOOOoXXOOOXXXXoXXOOOOOX ",
" X.ooo.XOOOOOXXXXXXOOOOOX ",
" XX...XXOOOOOXXXXXXOOOOOX ",
"                          "
};
