/* XPM */
static char *_ab17af0e272426cf30cd42f209d8a15uwIlgHzJTsg2Rcj8[] = {
/* columns rows colors chars-per-pixel */
"64 64 186 2 ",
"   c #030100",
".  c #090201",
"X  c #070709",
"o  c #0E0C09",
"O  c #130000",
"+  c #130F0C",
"@  c #1F1209",
"#  c #15110E",
"$  c #151514",
"%  c #1C1413",
"&  c #1C1916",
"*  c #1D1B1A",
"=  c #271410",
"-  c #261911",
";  c #281A11",
":  c #261E1A",
">  c #2D2017",
",  c #23211E",
"<  c #2E231C",
"1  c #1E1E20",
"2  c #252423",
"3  c #2A2522",
"4  c #262827",
"5  c #2D2926",
"6  c #2B2728",
"7  c #272928",
"8  c #2D2C2A",
"9  c #332926",
"0  c #342D2B",
"q  c #3A2E2C",
"w  c #382824",
"e  c #34312D",
"r  c #3B322D",
"t  c #2F3130",
"y  c #353232",
"u  c #3B3533",
"i  c #3A3835",
"p  c #3D3A39",
"a  c #412D2E",
"s  c #42352D",
"d  c #413630",
"f  c #423937",
"g  c #433D3A",
"h  c #493F3D",
"j  c #45413E",
"k  c #4B413E",
"l  c #444442",
"z  c #4C4442",
"x  c #4D4946",
"c  c #4D4C4A",
"v  c #524644",
"b  c #514A46",
"n  c #544D4B",
"m  c #594E4C",
"M  c #55514E",
"N  c #5A514F",
"B  c #584F52",
"V  c #555452",
"C  c #5B5552",
"Z  c #575853",
"A  c #5B5956",
"S  c #595758",
"D  c #5D5B5A",
"F  c #615654",
"G  c #625856",
"H  c #675758",
"J  c #635D5A",
"K  c #695E5C",
"L  c #5F615E",
"P  c #64615E",
"I  c #6A615E",
"U  c #656362",
"Y  c #6C6563",
"T  c #6D6966",
"R  c #6E6C6A",
"E  c #716664",
"W  c #726966",
"Q  c #796D67",
"!  c #706768",
"~  c #756D6A",
"^  c #7A6E6B",
"/  c #797067",
"(  c #75716E",
")  c #7C716E",
"_  c #757371",
"`  c #7C7472",
"'  c #777873",
"]  c #7C7976",
"[  c #7E7B79",
"{  c #80726E",
"}  c #827673",
"|  c #847976",
" . c #8A7B76",
".. c #807778",
"X. c #837D7B",
"o. c #8A7D7A",
"O. c #907E7C",
"+. c #84817E",
"@. c #8C817D",
"#. c #91827F",
"$. c #847E80",
"%. c #868382",
"&. c #8C8583",
"*. c #8C8986",
"=. c #8E8C8A",
"-. c #928683",
";. c #988684",
":. c #948986",
">. c #998B86",
",. c #908788",
"<. c #948D8B",
"1. c #9B8D8B",
"2. c #95918E",
"3. c #9C918D",
"4. c #969291",
"5. c #9B9593",
"6. c #969897",
"7. c #9C9996",
"8. c #9D9A99",
"9. c #A0928F",
"0. c #A29592",
"q. c #A39996",
"w. c #A89A97",
"e. c #A49D9A",
"r. c #A99D9B",
"t. c #A4A19E",
"y. c #ABA19E",
"u. c #B1A29F",
"i. c #9FA1A0",
"p. c #A6A3A2",
"a. c #ACA4A2",
"s. c #ADA9A6",
"d. c #ADABA9",
"f. c #B2A6A4",
"g. c #B3A9A6",
"h. c #B8A9A6",
"j. c #B5ABA9",
"k. c #B9AEAC",
"l. c #B5B1AE",
"z. c #BBB1AE",
"x. c #B1AFB0",
"c. c #B8AFB0",
"v. c #B5B4B2",
"b. c #BCB4B2",
"n. c #BEB9B6",
"m. c #B8B6B9",
"M. c #BEBBBA",
"N. c #C1B2AF",
"B. c #C3B5B2",
"V. c #C4B9B6",
"C. c #C8BAB7",
"Z. c #C5BCBA",
"A. c #CABDBA",
"S. c #CABDBB",
"D. c #C8B6B2",
"F. c #C5C1BE",
"G. c #CAC1BE",
"H. c #CABEC0",
"J. c #C6C2C1",
"K. c #CDC4C2",
"L. c #C7C8C3",
"P. c #CDC9C5",
"I. c #CEC9C8",
"U. c #D2C6C4",
"Y. c #D2C9C6",
"T. c #D4CCCA",
"R. c #D9CECC",
"E. c #D5D1CE",
"W. c #DAD1CE",
"Q. c #D5D3D1",
"!. c #DDD4D2",
"~. c #DDD9D6",
"^. c #DFD9D9",
"/. c #E1D7D4",
"(. c #E1D9D6",
"). c #E4DDDA",
"_. c #E9DEDD",
"`. c #E4E1DD",
"'. c #EAE1DE",
"]. c #E7E7E5",
"[. c #EBE5E2",
"{. c #EDE9E5",
"}. c #EDE9E8",
"|. c #F0EAE7",
" X c #F1EBE9",
".X c #F5F4F2",
/* pixels */
"Y p.%.$.$._ $.,.=.=.R B t.f.c.d.3.2.7.>.X.3.y.Z j 7.t.y.j.a.U @.' Y ~ ' ..e ~ r.3.a.e.7.a.q.e.e.4.& ` q.} <.1.} ] m.l.p.7.L.m.U ",
"=.v.p.8.d.p.6.p.a.i.s.f.S.U.Y.T.C.G.G.U.U.G.R.f.:.Z.k.G.V.Z.~ X.;.2.e.-.X.v 3.y.w.f.u.w.q.w.u.f.t.f -.0.O.9.0.o.n.{.[.[.{.`.{.l.",
"_ 4.2.2.4.4.4.<.4.4.<.g.D.N.N.k.N.N.N.N.B.k.D.y.:.j.f.B.b.f.o.Y ) { } ) } k ..3.>.<.>.:.:.>.;.1.1.k } } }  . .W &.'.R.U./.R.(.y.",
"` 8.4.7.5.4.5.4.4.5.4.5.C.N.D.D.B.B.B.D.z.A.G.5.e.j.g.g.k.j.g.V ) } ^ ^ | f } e.1.0.0.q.0.0.q.9.2.k ) -.| |  .#.~ a._.T./.(.[.7.",
"R 6.$.6.6.4.4.,.4.7.X.<.J.S.S.C.D.z.A.Z.B.B.G.y.X.b.e.a.l.e.j.J ( W ` ) W 3 x ' ` ` Y ~ K J ~ E J . n I z f m W k P n.n.b.K.n.J ",
"2 4   6 y 1 2 6 4 e   3 <.q.4.q.-...:.@.] ) 5.G . Y G f x u f   9 & f l j 0 . 3 # , R T +.( P T ' T n ( ( ~ _ ( ( ' ( T g R R   ",
"o $.5.! R $.$.} <.t.g.r.K 3 q.1.7.3.3.<.e ( Y P Y I W Q Q Q ~ +...) n :.2.&.&.0.X.q.'.'.T.Z.B.G.G.!.b.V.Z.T.~.W.z.b.S.G.~.).I.*.",
") N.f.r.N.f.9.$.0.S.u.9.:.C e.r.0.w.q.r.J / ..| } X.@.-.&.,.=.<.@.( F #. . .@. .X.N G.G.b.e.z.V.b.G.B.a.f.y.V.R.k.j.g.b.Z.Z.b.*.",
"X.o.{ }  .} }  . .$.{ } { K 1.0.3.9.0.q.g K  .) { ) { ` ^ { } Q } / N @.-.o.#.#.#.I 0.n.T.V.g.g.j.f.f.k.j.j.B.T.K.V.g.j.a.f.z.T ",
"^ O. .O.o.o.@. .o. .o.o.o.m E Q ~ W W W     G J H E J Y W G N Y G n . J C H I N I : W l.j.k.g.j.j.g.c.f.f.f.f.f.f.j.g.f.z.a.z.| ",
"Y -. . .o.o. . .$. . .o.%.9 r.S.a.n.J.t.&.M.v.j.a.P.F.T M 2.,.;.3.:.@.<.w.&.,.:.#.*.f s.g.f.j.g.f.j.f.j.j.j.g.j.j.j.g.g.j.g.z.] ",
"H $. .O.$.|  .#. .O. .o...0 P.(.Y.~.!.K.M.].{.).'.`.'.b.1.g.r.y.l.j.r.y.y.r.y.B.y.u.k X.b.j.g.j.f.k.g.j.f.j.g.j.g.j.j.j.f.g.z.` ",
"H @. .| |  .@./  . . .o.) v Z.K.K.K.K.Z.5.W.E.U.~.W.).y.) 1.;.1.-.;.>.:.:.>.;.-.:.3.~ . -.k.g.a.j.f.k.j.j.g.j.g.j.f.g.k.j.f.z.` ",
"n -.@.Q @.-.) / #.o.O.-.^   V.R.V.G.J.R.z.7.'.E.~.).'.3.^ r.0.3.q.9.0.w.0.0.w.q.9.q.<.& W z.k.j.c.c.y.j.b.j.k.j.j.z.k.f.r.b.b.W ",
"q H a O w H k = J E I ! g   X.2.+.~ *.y.<.D t.e.=.d.t.9   A B n N N C N d z C n k Y x   . :.q.a.t.e.&.` X.*.&.W X.*.7.<.Y 2.2.p ",
"  L ' ( +._ P 2.[ A R [ U   S %.%.[ Y D P i     L y   D =._ ! ] +.] X.%.<.%.[ X.Y [ [ =.<.4.*.V   2 X.Y c h V i c n D U P c &   ",
"( `.).[.{.).a.`.~.). X).F.V T.!._.'.K.G.U.T.T.G././.G d.J.^.I.x.p.e.8.E.I.x.p.p.v.J.a.p.I.E.Q.c U H.).~.E.Y.P.T.F.T.E.P.`.T.E.*.",
"<.).R.(.`.!.l.g.P.Y.U.Y.V.:.D.k.B.S.V.z.B.S.S.D.k.U.=.X.5.8.t.5.4.p.m.I.4.=.4.<.e.p.2.4.m.j.4.  g.R.S.P.G.Y.Y.R.Y.G.R.Y.G.G.W.*.",
"7.[.(.).).`.~.<.R.I.Y.R.j.@.G.B.V.N.B.C.B.B.N.V.B.S.=._ 8.4.<.5.7.a.p.d.4.7.7.4.4.2.4.v.x.5.V 5.K.T.K.U.Y.G.Y.G.Y.Y.G.G.G.K.W.+.",
"e 7.e.[ 2.*.*.P <.%.<.4.Y @.V.B.V.B.B.D.B.V.D.B.B.Z.` &.8.5.6.4.4.4.4.<.5.4.4.4.7.4.4.4.6.<.  x.I.J.K.G.V.P.Y.F.G.Y.F.G.P.K.F.T ",
"V T T J n Z M G n n n P C o.S.B.N.B.V.D.N.B.V.B.B.C.` X.4.4.7.6.4.8.5.4.4.5.4.7.2.5.4.4.e.L   c Y W X.) [ +.<.<.X.@.+.X.+.&.(   ",
"W X.3.3.-.1.<.&.o.| } o.` ` V.B.D.B.B.N.D.B.B.B.V.Z.` [ 8.4.4.4.<.6.4.4.4.7.4.4.6.4.5.4.4._ ~ l   q.r.g.g.0.w.y.q.r.j.a.e.w.e.X.",
"I } W { ) ^ { ^ ^ } ^ | N ^ V.V.B.C.B.f.N.S.B.z.B.S.` &.8.7.2.6.6.4.8.8.4.4.8.4.4.5.5.7.4.8.4.8 K q.3.9.9.9.3.9.1.1.0.3.3.1.q.-.",
"m ^ ^ Q E Q W / / ^ ^ ( g h j.S.B.b.z.r.g.j.0.3.f.j.3 S =.X.R 4.4.,._ ` ,.=.$.[ ,.4.6.<.=.4.!    .:.:.3.3.>.#.>.3.0.>.3.>.1.3.H ",
", M V z z n J n n V n n j g 8 J %.=._ D U [ %.S J X.J J ! V y i $ 4 t $ 7     t c p   L _ D t l ( %.c 3 K ~ W P C j e Z D P x   ",
"W j.j.B.j.f.a.j.a.j.B.s.r.z.q.V Y.T.].).E.~.].t.j.K.I.T.B.Z.[ X ^ ,.9.g.,.` 4.e.Y   d.T.Q.^.}.].}..X].U &.3.&.*.%.X.#.<.@.3.2.P ",
"W 0.1.0.>.>.>.9.9.1.9.3.>.1.1.o.P.U.Y.T.T.Y.a.4.B.C.H.B.B.S.q...g.1.1.k.f.q.V.u.Y ` /.K.I.U._.!.I.~.).t.X.X.` @.;.&.a.e.%./ +.T ",
"{ 9.9.0.9.0.0.9.9.9.9.9.0.q.<.G K.T.T.Y.U.R.} V.S.D.S.C.D.K.y.` w.1.1.9.1.>.>.0.! o.T.T.J.K.Y.].J.Y.I.x v | ) :.<.-.-.2.:.Q | v ",
"b ` ^ ..` } Q X.o.} o.} Q X.C . ` 1.<.+.+.*.x ` } ` ] ! &.,.f ! 0.5.1.0.1.0.>.q.W $.R.S.Y.K.S.{.(.G.U.V.X.~ { ~ Q W ( / ^ { ) H ",
"2 <.e.e.&.%.,.5.3.@.@.5.j.j.s.7.2.l l <.[ ] X.] ] X.] ] 4.4.$.Y 0.;.9.1.0.>.>.q.Y r.R.U.U.Y.K.T.[.K.G.!.a.  | / } | ) ) { ^ } Y ",
"&.J.B.B.c.b.S.b.b.l.z.z.S.V.b.b.V.e.T s.5.8.t.p.c.d.v.m.H.a.7._ 1.1.9.>.1.9.>.0.I g.Y.G.K.K.P.K.U.Y.U.K.F.x K } ^ / { ) ) ) } b ",
"( k.a.f.k.g.a.f.g.j.g.f.a.f.g.a.g.e.: <.6.4.4.4.2.4.2.4.=.4.2.! 0.9.>.9.9.>.9.w.J q.T.U.K.V.U.P.Y.S.K.U.T.P K } } ` ) ) ) ^ ` u ",
"Y z.z.g.w.a.j.k.b.1.t.z.b.k.k.z.c.R   ] 4.2.4.4.2.2.=.+.4.<.] x ;.) W 3.:.W ` ..u ~ J.Y.T.V.V.P.S.S.b.K.Z.S x ~ G n K ' ^ z I u ",
"  Z I k + g J ` J   c _ ~ W ( ( P     o y 7 * 8 2 1 $ X y 1     2 0 e g .     6   3 x =.y.T x n ( _ U [ D   8 *   3 e &   J i   ",
"j y.q.y.g.q.a.y.e.j.g.J [ b.n.F.I.b.R X.' R ~ ` ] A 5.1.' X.o.^ o.,.1.@.W 3.b.V.U.b.q.j.g.t.y.j.l.N v.`.n.~.~.n.d.Q.Q.I.J.`.E.[ ",
"T a.3.w.y.0.0.9.w.f.0.} G.E.T.'.E.T.~ X.&.:.q.-.^ ^ >.>.o.#.>.@.#.o.#.#.1.D.A.A.H.C.S.C.A.U.S.C.Y.y.F.W.P.P.!.b.n.].)./.'.~.[.d.",
"F <.9.>.:.1.1.9.>.;.0.@.F.U.S.W.!.J.a.F } ( ^ ^ ) E | }  .@.} o.| o.| @.` z.B.z.B.B.B.B.N.N.b.B.V.5.Z.K.U.U.K.S.q.T.W.K.!.!.~.<.",
"k 3.9.0.9.0.9.1.0.9.3.@.G.R.I.P.Y.T.U.K ) ` } | } F @. .@.#. .@. . .-.o.Q j.G.S.C.V.B.C.S.S.C.C.K.:.b.T.V.V.S.!.l.8.[.T.!.`.'.+.",
"  V H z F Y E C J C N 5 %.j.5.4.e.1.3.v k r l V 0 . < > @ s s 9 ; @ r z : ^ y.w.e.r.,.-.1.-.~ $.0.J ~ 4.X.R <.7.+.Z <.2.*.e.%.& ",
"j b.K.B.j.b.j.b.Z.Y.G.Z.b.a.b.B.l.j.z.P.I.T.t.  =.M.e.t.8.5.8.e.y.a.4.c   6.m.F.m.e.=.6.=.~ %.d.*.  l M c i 8 u p g u 0 q i l 7 ",
"X.Y.R./.R.G.V.N.T.W.S.C.V.H.!.U.K.U.C.C./.(.@.( /.W.W.R.!.!.T.R.W.W.(.X.p d.a.Z.Q.e.6.d.H.L.m.m.L.P ( -.5.7.-.>.1.,.@. . .X.:.n ",
"G b.B.z.N.D.S.Y.!.U.B.V.D.V.V.V.G.N.N.Y.Y.D.J z.P.G.U.G.U.G.P.Y.K.K.Y.( c 6.=.<.8.4.5.<.,.6.,.*.e...F ` } Q } ^ / ) Q / Q / R & ",
"I S.V.B.B.B.D.C.V.V.V.B.B.V.B.B.N.B.Z.G.Z.0.( T.U.G.J.J.Y.Y.K.G.Y.P.K.A V 8.5.5.4.4.6.4.5.5.4.4.8.Y Y } } ..} o.X.} }  .| o.Y $ ",
"W Z.B.B.V.D.D.B.B.B.D.B.V.D.B.B.B.D.D.z.S.( n &.X.,.-.1.3.<.*.@.@.3.X.  U 6.4.5.5.5.4.4.5.5.4.4.i.P   e 9     o - r > @ w < .   ",
"Y S.V.B.D.B.B.D.B.B.B.B.B.B.B.V.B.B.B.C.f.` k.f.V.r.f.j.y.y.V.k.y.y.z.T l 8.5.4.5.4.5.5.6.4.6.4.6.V 5.Z.l.5.l.b.t.X.b.n.g.j.m.L ",
"K B.B.D.V.B.B.B.N.C.D.B.B.B.C.B.D.B.V.Z.~ ` 0.3.r.>.>.1.1.1.0.1.3.:.3..., 4.6.4.7.2.=.5.4.4.5.4.6.` `._.{.'.).[.~.y.~.W.E.E.).=.",
"W Z.V.B.N.B.V.B.D.B.B.B.C.B.D.N.N.N.Z.a.0 >.1.1.>.1.1.9.1.9.1.9.3.>.q.W # *.4.5.2.7.[ 4.4.4.=.8.4.U E.!.W.Y.T./.j.s.K.U.U.S.I.4.",
"C Z.N.k.B.Z.B.B.k.z.C.N.k.N.C.C.C.S.C.1.C 3.0.;.9.9.9.-.9.3.1.3.#.3.3.b   *.t.4.7.4.D *.8.` B %.=.7 Z._.!.I.~.Z.+.Q.G.V.k.S.T.( ",
"3 ..:.:.@.&.X.X.o.5.[ ` <.,.&.&.5.,.,.B   z l   q : 3 0 x j p u p n y X     M p l ,   & &           o L A c D p y R G y p V c 2 ",
"n ,.,.0.1.( -.5.5.>.Y F.Y.E.I.n.P.(.e.e i.p.t.=.4.q.7.7.[ %.t.Z.n.d.a.5.n 2.2.s.a.t.e.7.<.7.7.q.7.j.n.,.. I ~ X.] K F Q K X.&.f ",
"K :.| ;.>.#.o.:.-.o.Y G.T.W.R.Y.I.!.m.&.x.8.8.8.p.p.7.7.5.7.5.d.7.8.4.7.=.n.z.b.b.c.b.c.b.b.c.b.l.b.b.d.j 0.>.1.@.-.;.0.-.;.7.J ",
"z o. .o. .{ ^ o.| ^ ;.K.Y.G.G.U.K.U.V.X.4.2.4.4.4.<.2.4.4.4.5.<.4.4.2.8.+.q.j.f.f.a.g.f.f.f.f.f.f.j.j.q.3 .. .{ o.| } } o. .| v ",
"u &.o.#.@.( o.@.Y W (.I.F.K.Z.V.U.W.g.D p.8.q.4.4.7.i.7.,.4.8.7.6.6.8.6.D t.z.z.c.f.f.N.k.N.g.N.y.f.b.q.% $.-.#.o.@.&.#.o.o.,.b ",
"+ 3 N C r h v h   J e.t.5.' J ] *.*.U   T R L c S _ $.R 8 U ] +.$.*.[ U     A H K m C C n C E K v F H i . q n m f m m C z g m 3 ",
"% Y X...X.G M Y X.&.&.%.  ( n.l.d.4.q.a.p._   $ P x 0 u R W Y l   y a.H.J.K.I.K.[ J.S.b.j.J.n.Z.' j 5.:.:.q.q.%.2.w.:.1.3.5.1.i ",
"x 2.:.&.&.a.2.:.@...` r.~ R.Y.W.S.(.K.b.b.F.,.y g.S.f.5.G.r.w.w.&._ ].^.~. X'.'.t.J.!.(.).|.~.~.q.<.g.w.r.h.g.r.y.r.r.y.k.y.a.H ",
"u ) E @.e.y.4.:.3.@.(  .n a.z.f.j.V.e.g.f.k.5.v 1.9.q.1.y.>.1.0.1.5.).W.!.).).!.~.<.b.U.G.G.S.T.e.` 1.:.>.:.;.>.>.>.>.;.>.-.3.N ",
"9 ) | { o...| o.| ` ] W 0 7.j.a.I.V.g.j.g.j.5.n 9.9.>.3.9.9.1.9.;.X.!.).Y.T.W.Y.(.7.j.U.V.T.K.U.^ Y r.:.9.9.0.0.9.3.0.0.q.3.q.G ",
"k } { Q ( { ) ^ ) { W I g.g.g.b.T.g.g.j.j.z.7.M 3.9.9.3.9.>.3.0.%.  S %.M l A M Z 5 M J V V A C u f / ( W T Y ~ ^ N F I I I A   ",
"z ) ^ { ^ ) ) { / ..r I l.g.f.S.l.j.g.j.f.j.f.C 3.3.>.3.3.3.>.3...K X.X.X.' ( ) R ~ Q ~ X.Y l f.b.Z.S.U.z.j.y.k.g.g.g.y.j.V.b.X.",
", / ` ) | ) { { ) ^ w 2.j.j.k.f.k.g.a.r.j.j.j.I :.9.1.1.1.3.3.3.} K ..-.*.-.@.@.@.| ) } ..C -.U.B.A.B.S.G.C.C.D.C.S.G.A.S.C.G.z.",
"& W ) { ) ] ) ) | ..q 5.V.g.e.b.j.k.0.a.k.b.1.x 9.9.9.9.0.>.>.r.@.I @./ / ) | ) ) ` } ) $.u &.Z.V.V.B.B.B.B.N.V.B.B.D.B.N.C.S.w.",
"  j f n I D r r n N   Y 7.` ` ;.2.<.U a.a.:.j   G Y m W <.^ n X.N @ G I F F G I K K K Y H . F c.N.B.B.B.B.N.g.z.B.V.k.j.b.b.b.0.",
"_ X.X.+.X.X.+.] ] ` ` ] ] [ X.%.[ X.&.X.&...] ( ] ' ( ' %.X.X.[ ] ' [ [ _ ' ] ] X.` ] ] ] _ [ 7.j.g.f.g.a.a.5.q.a.e.4.2.0.e.a.&."
};
