/* XPM */
static char *f79f769ec3b64d57add35a0c63a19165gR0NNDIB1J9PlXDa[] = {
/* columns rows colors chars-per-pixel */
"27 26 3 1 ",
"  c None",
". c #3A4466",
"X c #8B9BB4",
/* pixels */
"                           ",
" XXXX.XXXXXXXXX.XXXXXXXXX  ",
" XXXX.XXXXXXXXX.XXXXXXXXX  ",
" X.X..XX.X.X.X..XX.X.X.X.  ",
" .X.X.X.X.X.X.X.X.X.X.X.X  ",
" ........................  ",
" XXXXXXXXX.XXXXXXXXX.XXXX  ",
" XXXXXXXXX.XXXXXXXXX.XXXX  ",
" XX.X.X.X..XX.X.X.X..XX.X  ",
" X.X.X.X.X.X.X.X.X.X.X.X.  ",
" ........................  ",
" XXXX.XXXXXXXXX.XXXXXXXXX  ",
" XXXX.XXXXXXXXX.XXXXXXXXX  ",
" X.X..XX.X.X.X..XX.X.X.X.  ",
" .X.X.X.X.X.X.X.X.X.X.X.X  ",
" ........................  ",
" XXXXXXXXX.XXXXXXXXX.XXXX  ",
" XXXXXXXXX.XXXXXXXXX.XXXX  ",
" XX.X.X.X..XX.X.X.X..XX.X  ",
" X.X.X.X.X.X.X.X.X.X.X.X.  ",
" ........................  ",
" XXXX.XXXXXXXXX.XXXXXXXXX  ",
" XXXX.XXXXXXXXX.XXXXXXXXX  ",
" X.X..XX.X.X.X..XX.X.X.X.  ",
" .X.X.X.X.X.X.X.X.X.X.X.X  ",
" ........................  "
};
